<svg width="20" height="14" xmlns="http://www.w3.org/2000/svg">
 <!-- Created with Method Draw - http://github.com/duopixel/Method-Draw/ -->
 <g>
  <title>background</title>
  <rect fill="#fff" id="canvas_background" height="16" width="22" y="-1" x="-1"/>
 </g>
 <g>
  <title>Layer 1</title>
  <path id="svg_22" d="m14.892996,14.386629a5.8,5.8 0 0 1 -4.578,-1.926a7.268,7.268 0 0 1 -1.7,-5l0,-0.557a7.116,7.116 0 0 1 1.751,-4.92a5.381,5.381 0 0 1 4.145,-1.964a5.21,5.21 0 0 1 4.208,1.689a6.73,6.73 0 0 1 1.433,4.5l0,1.574l-8.94,0l-0.038,0.064a5.494,5.494 0 0 0 1.006,3.282a3.2,3.2 0 0 0 2.713,1.287a6.277,6.277 0 0 0 2.234,-0.365a5.125,5.125 0 0 0 1.662,-1.005l0.981,1.638a6.024,6.024 0 0 1 -1.955,1.21a7.787,7.787 0 0 1 -2.922,0.493zm-0.382,-12.383a2.713,2.713 0 0 0 -2.153,1.069a5.078,5.078 0 0 0 -1.1,2.68l0.026,0.064l6.354,0l0,-0.332a3.88,3.88 0 0 0 -0.789,-2.483a2.809,2.809 0 0 0 -2.338,-0.998z" class="cls-49"/>
  <path stroke="null" id="svg_23" d="m2.920996,5.753629a2.877,2.877 0 1 1 2.921,-2.876a2.9,2.9 0 0 1 -2.921,2.876zm0,2.9a2.877,2.877 0 1 1 -2.921,2.877a2.9,2.9 0 0 1 2.921,-2.88l0,0.003z" class="cls-50"/>
 </g>
</svg>