<svg xmlns="http://www.w3.org/2000/svg" width="244" height="45" viewBox="0 0 244 45"><path fill-rule="evenodd" clip-rule="evenodd" fill="#fff" d="M60.67 3.136c1.292.33 2.855.604 4.309.714v12.042h-18.133v-12.042c1.508-.109 3.016-.384 4.363-.714v-2.97h-13.95v2.916c1.4.384 3.07.658 4.686.768v29.747c-1.616.11-3.286.385-4.686.771v2.913h13.95v-2.97c-1.347-.329-2.855-.604-4.363-.714v-13.416h18.133v13.416c-1.454.11-3.017.385-4.309.714v2.97h13.896v-2.913c-1.4-.386-3.071-.66-4.686-.771v-29.747c1.615-.109 3.286-.384 4.686-.768v-2.916h-13.896v2.97zm37.717 30.077h-12.953v-13.197h10.456c.162 1.265.431 2.639.754 3.794h3.016v-11.271h-3.016c-.323 1.152-.539 2.419-.754 3.792h-10.456v-12.205h12.898c.108 1.264.378 2.913.701 4.618h3.447v-8.578h-26.634v2.916c1.4.384 3.07.658 4.686.768v29.747c-1.616.11-3.286.385-4.686.771v2.913h26.742v-8.797h-3.447c-.323 1.649-.593 3.299-.754 4.729zm27.638-15.562v-.11c3.879-1.265 6.518-4.729 6.518-8.632 0-5.554-3.877-8.907-11.795-8.907-4.363 0-8.242.164-10.826.164h-4.579v2.916c1.4.384 3.07.658 4.687.768v29.747c-1.616.11-3.287.385-4.687.771v2.913h4.687c3.5 0 7.109.165 9.264.165 11.365 0 14.059-6.818 14.059-11.271-.001-3.85-2.265-7.644-7.328-8.524zm-11.095-13.47c1.508-.055 3.232-.11 4.955-.11 5.818 0 7.487 2.364 7.487 5.664 0 4.068-3.124 6.488-9.104 6.488-1.237 0-2.316 0-3.338-.057v-11.985zm4.632 29.141c-2.101 0-3.662-.109-4.632-.274v-12.978c.861-.055 2.801-.055 3.393-.055 5.602 0 9.804 1.54 9.804 6.322 0 4.07-2.639 6.985-8.565 6.985zm38.557-30.186c1.293.33 2.854.604 4.309.714v12.042h-18.132v-12.042c1.508-.109 3.016-.384 4.362-.714v-2.97h-13.949v2.916c1.399.384 3.07.658 4.686.768v29.747c-1.615.11-3.286.385-4.686.771v2.913h13.949v-2.97c-1.347-.329-2.854-.604-4.362-.714v-13.416h18.132v13.416c-1.454.11-3.016.385-4.309.714v2.97h13.897v-2.913c-1.401-.386-3.071-.66-4.687-.771v-29.747c1.615-.109 3.285-.384 4.687-.768v-2.916h-13.897v2.97zm82.111 30.517l-14.165-15.617 13.357-14.24c1.237-.11 2.64-.385 3.771-.66v-2.97h-13.52v2.97c1.131.33 2.531.55 3.717.66l-12.981 14.184v-14.13c1.239-.109 2.801-.384 4.04-.714v-2.97h-13.628v2.916c1.399.384 3.071.658 4.688.768v29.747c-1.616.11-3.288.385-4.688.771v2.913h13.628v-2.97c-1.239-.329-2.801-.604-4.04-.714v-14.955l13.196 15.065c-1.131.111-2.316.329-3.393.604v2.97h13.788v-2.97c-1.13-.275-2.529-.549-3.77-.658zm-210.069-33.494h-18.996v.007h-6.901v2.916c1.401.385 3.292.769 4.686.769.05 3.228.077 5.489.077 6.908 0 8.986-2.436 19.334-6.835 22.456h-.001s-1.536.354-2.191.566v11.218h3.157c.638-2.701 1.303-5.242 1.688-7.713h25.8c.385 2.471 1.049 5.012 1.688 7.713h3.157v-11.784h-4.498v-29.364c1.617-.11 3.286-.384 4.687-.769v-2.916h-5.518v-.007zm-4.071 33.056h-17.255c3.071-4.903 4.708-14.693 4.708-21.534 0-2.766-.063-5.595-.065-7.498h12.612v29.032zm159.377-9.965c-1.562 2.584-2.976 5.37-4.375 8.008.376-6.213.376-16.74.376-27.353 1.454-.109 2.909-.439 4.202-.77v-2.97h-12.712v2.97c1.131.33 2.424.604 3.716.77v33.375h5.445l14.061-23.694c1.993-3.327 3.202-5.36 4.861-8.388-.344 6.613-.574 18.271-.574 28.344-1.454.111-3.016.439-4.307.769v2.97h13.787v-2.913c-1.4-.386-3.07-.714-4.687-.825v-29.693c1.616-.109 3.286-.384 4.687-.769v-2.915h-10.703l-13.777 23.084z"/></svg>