<svg width="17" height="19" xmlns="http://www.w3.org/2000/svg">
 <!-- Created with Method Draw - http://github.com/duopixel/Method-Draw/ -->
 <g>
  <title>background</title>
  <rect fill="#fff" id="canvas_background" height="21" width="19" y="-1" x="-1"/>
 </g>
 <g>
  <title>Layer 1</title>
  <path d="m16.110134,18.990631l-15.237,0a0.889,0.889 0 0 1 -0.873,-0.905a10.959,10.959 0 0 1 0.857,-3.63a0.872,0.872 0 0 1 0.121,-0.2a13.531,13.531 0 0 1 3.6,-3.323a8.715,8.715 0 0 1 -1.769,-5.045a5.688,5.688 0 1 1 11.369,0a8.713,8.713 0 0 1 -1.766,5.04a13.514,13.514 0 0 1 3.6,3.328a0.9,0.9 0 0 1 0.12,0.2a10.959,10.959 0 0 1 0.857,3.63a0.889,0.889 0 0 1 -0.879,0.905zm-7.617,-17.192a4.019,4.019 0 0 0 -3.939,4.084c0,2.408 1.91,5.516 3.939,5.516s3.939,-3.108 3.939,-5.516a4.019,4.019 0 0 0 -3.939,-4.084zm6.086,13.5c-1.473,-1.845 -3.024,-3.025 -3.56,-2.988a4,4 0 0 1 -5.052,0c-0.55,-0.04 -2.086,1.143 -3.559,2.988a10.258,10.258 0 0 0 -0.415,1.692l13,0a10.2,10.2 0 0 0 -0.416,-1.692l0.002,0z" class="cls-40" id="Shape_9_copy"/>
 </g>
</svg>