<svg width="22" height="19" xmlns="http://www.w3.org/2000/svg" style="vector-effect: non-scaling-stroke;" stroke="null">
 <!-- Created with Method Draw - http://github.com/duopixel/Method-Draw/ -->
 <g stroke="null">
  <title stroke="null">background</title>
  <rect stroke="null" fill="#fff" id="canvas_background" height="21" width="24" y="-1" x="-1"/>
 </g>
 <g stroke="null">
  <title stroke="null">Layer 1</title>
  <path stroke="null" d="m22.365446,1.193574c-0.074403,0.26365 -1.644498,5.56166 -6.973855,10.33237a2.068977,2.57597 0 0 1 0.216532,1.88595c-0.523683,2.7078 -4.538586,4.63176 -4.993589,4.83959l-1.580588,0.73752l1.674069,-5.69112l-2.67851,-4.35385l-5.166242,0.02019l1.09983,-1.50947c0.296658,-0.40617 2.957044,-3.97143 5.2664,-3.97143a2.433361,3.02964 0 0 1 1.734163,0.85628a22.096751,27.51143 0 0 1 10.640589,-4.3396l1.080752,0l-0.319552,1.19357zm-7.964941,10.62571a0.653411,0.81353 0 0 0 0.009539,-0.35628l-2.04036,1.70068l-0.373923,1.26958c1.157063,-0.7684 2.239722,-1.75888 2.404745,-2.61398zm-4.85146,-7.71008a5.455269,6.79205 0 0 0 -2.792022,1.81707l1.153247,0l2.041314,-1.70306a0.84705,1.05461 0 0 0 -0.40254,-0.11401zm2.108086,0.92991l-0.476943,0.39786c-0.490297,0.4216 -0.985363,0.8729 -1.482338,1.37171l2.516349,4.089a22.923769,28.5411 0 0 0 6.084834,-5.95358l-1.798074,-2.92038a23.043959,28.69074 0 0 0 -4.847645,3.01539l0.003816,0zm6.391031,-3.62939l1.247682,2.02728a16.597602,20.66474 0 0 0 1.402211,-2.69473a18.947976,23.59106 0 0 0 -2.646078,0.66388l-0.003816,0.00357zm-1.927802,4.8384a1.199988,1.49404 0 0 1 -1.602527,-0.30879a1.030196,1.28264 0 0 1 0.263272,-1.86576a1.201895,1.49641 0 0 1 1.603481,0.30759a1.03115,1.28383 0 0 1 -0.260411,1.86696l-0.003816,0zm-9.612301,2.37525a2.999969,3.73509 0 0 1 2.438131,2.03204a2.211106,2.75292 0 0 1 0.286166,3.07477c-0.620979,1.29214 -2.314125,1.94652 -5.033652,1.94652c-0.704921,0 -1.199034,-0.04869 -1.199034,-0.04869l-0.999672,-0.09739l0.322413,-1.10568c0.290935,-0.96198 1.824782,-5.79563 4.189464,-5.79563l-0.003816,-0.00594zm-2.305541,5.22557c2.347511,0 3.442572,-0.54631 3.667689,-1.01423a1.107461,1.37884 0 0 0 -0.259457,-1.23039a1.6941,2.10923 0 0 0 -1.102691,-1.1615c-0.716368,0 -1.670253,1.73038 -2.306494,3.40493l0.000954,0.00119z" class="cls-38" id="Color_Fill_1_copy_19"/>
 </g>
</svg>